<svg width="10" height="10" viewBox="0 0 10 10" fill="none" xmlns="http://www.w3.org/2000/svg">
    <path fill-rule="evenodd" clip-rule="evenodd"
        d="M3.89728 6.12676H1.10161C0.493208 6.12676 0 5.63355 0 5.02515C0 4.41675 0.493208 3.92354 1.10161 3.92354H3.89728V1.10272C3.89728 0.493705 4.39099 0 5 0C5.60901 0 6.10272 0.493704 6.10272 1.10272V3.92354H8.89839C9.50679 3.92354 10 4.41675 10 5.02515C10 5.63355 9.50679 6.12676 8.89839 6.12676H6.10272V8.89728C6.10272 9.5063 5.60901 10 5 10C4.39099 10 3.89728 9.5063 3.89728 8.89728V6.12676Z"
        fill="white" />
</svg>
